<?xml version="1.0" encoding="utf-8"?>
<!-- Generator: Adobe Illustrator 25.0.0, SVG Export Plug-In . SVG Version: 6.00 Build 0)  -->
<svg version="1.1" id="Layer_1" xmlns="http://www.w3.org/2000/svg" xmlns:xlink="http://www.w3.org/1999/xlink" x="0px" y="0px"
	 viewBox="0 0 679.8 548" style="enable-background:new 0 0 679.8 548;" xml:space="preserve">
<style type="text/css">
	.st0{clip-path:url(#SVGID_2_);}
	.st1{clip-path:url(#SVGID_6_);}
	.st2{fill:#FFFFFF;}
	.st3{opacity:0;fill-rule:evenodd;clip-rule:evenodd;}
	.st4{fill:none;}
	.st5{fill-rule:evenodd;clip-rule:evenodd;fill:none;}
	.st6{font-size:8px;}
	.st7{fill:#000000;}
</style>
<g>
	<defs>
		<rect id="SVGID_1_" x="370.6" y="345.7" width="281.7" height="193.2"/>
	</defs>
	<clipPath id="SVGID_2_">
		<use xlink:href="#SVGID_1_"  style="overflow:visible;"/>
	</clipPath>
	<g class="st0">
		<defs>
			<rect id="SVGID_3_" x="370.6" y="345.7" width="281.7" height="193.2"/>
		</defs>
		<clipPath id="SVGID_4_">
			<use xlink:href="#SVGID_3_"  style="overflow:visible;"/>
		</clipPath>
		<g style="clip-path:url(#SVGID_4_);">
			
				<image style="overflow:visible;" width="1098" height="752" xlink:href="3E37581B.jpg"  transform="matrix(0.2565 0 0 0.2569 370.6218 345.7165)">
			</image>
		</g>
	</g>
</g>
<g>
	<defs>
		<rect id="SVGID_5_" x="36.7" y="343.5" width="288.2" height="197.6"/>
	</defs>
	<clipPath id="SVGID_6_">
		<use xlink:href="#SVGID_5_"  style="overflow:visible;"/>
	</clipPath>
	<g class="st1">
		<defs>
			<rect id="SVGID_7_" x="36.7" y="343.5" width="288.2" height="197.6"/>
		</defs>
		<clipPath id="SVGID_8_">
			<use xlink:href="#SVGID_7_"  style="overflow:visible;"/>
		</clipPath>
		<g style="clip-path:url(#SVGID_8_);">
			
				<image style="overflow:visible;" width="1098" height="752" xlink:href="3E375819.jpg"  transform="matrix(0.2625 0 0 0.2627 36.6632 343.5295)">
			</image>
		</g>
	</g>
</g>
<rect x="5.6" y="431.3" transform="matrix(-1.836970e-16 1 -1 -1.836970e-16 473.6099 396.7562)" class="st2" width="65.7" height="7.8"/>
<rect x="290.2" y="391.8" transform="matrix(-1.836970e-16 1 -1 -1.836970e-16 768.127 102.2391)" class="st2" width="85.5" height="86.9"/>
A</text>
<rect x="24.7" y="312" class="st3" width="423.2" height="31.5"/>
B</text>
<rect x="36.7" y="168.9" width="603.3" height="143.1"/>
<g>
	<defs>
		<rect id="SVGID_9_" x="36.7" y="168.9" width="603.3" height="143.1"/>
	</defs>
	<clipPath id="SVGID_10_">
		<use xlink:href="#SVGID_9_"  style="overflow:visible;"/>
	</clipPath>
	<g transform="matrix(1 0 0 1 -3.814697e-06 0)" style="clip-path:url(#SVGID_10_);">
		
			<image style="overflow:visible;" width="1602" height="404" xlink:href="3E37581F.jpg"  transform="matrix(0.3343 0 0 0.3343 59.4311 168.8952)">
		</image>
	</g>
</g>
<rect x="36.7" y="168.9" width="603.3" height="143.1"/>
<image width="1546" height="378" xlink:href="3E375818.jpg"  transform="matrix(0.3343 0 0 0.3343 60.7684 26.4801)">
</image>
<rect x="117" y="18" width="603.3" height="143.1"/>
<rect x="117" y="18" width="603.3" height="143.1"/>
<rect x="36.7" y="343.5" width="288.2" height="197.6"/>
<rect x="343" y="312" width="296.9" height="31.5"/>
<text transform="matrix(1 0 0 1 349.7755 332.208)">C</text>
<g>
	<rect x="8.1" y="27.8" class="st2" width="52.5" height="134.9"/>
	<rect x="595" y="27.8" class="st2" width="81.6" height="134.9"/>
	<rect x="36.7" y="18" class="st4" width="603.3" height="143.1"/>
	<rect x="36.7" y="18" class="st5" width="603.3" height="143.1"/>
	<image width="125" height="141" xlink:href="3E375816.jpg"  transform="matrix(0.5556 0 0 0.5556 594.9919 47.3209)">
	</image>
Variant</text>
	<text transform="matrix(1 0 0 1 31.1094 45.3261)">Omicron</text>
	<text transform="matrix(1 0 0 1 42.1881 86.4883)">Delta</text>
	<text transform="matrix(1 0 0 1 40.3311 125.6558)">Alpha</text>
</g>
<rect x="8.1" y="27.8" width="52.5" height="134.9"/>
<rect x="595" y="27.8" width="81.6" height="134.9"/>
<rect x="36.7" y="18" width="603.3" height="143.1"/>
<rect x="36.7" y="18" width="603.3" height="143.1"/>
<image width="125" height="141" xlink:href="3E375817.jpg"  transform="matrix(0.5556 0 0 0.5556 594.9919 47.3209)">
</image>
<text transform="matrix(6.123234e-17 -1 1 6.123234e-17 26.6631 100.3296)">Variant</text>
<text transform="matrix(1 0 0 1 31.1094 45.3261)">Omicron</text>
<text transform="matrix(1 0 0 1 42.1881 86.4883)">Delta</text>
<text transform="matrix(1 0 0 1 40.3311 125.6558)">Alpha</text>
<g>
	<rect x="8.1" y="179.8" class="st2" width="52.5" height="134.9"/>
	<rect x="595" y="179.8" class="st2" width="81.6" height="134.9"/>
	<rect x="36.7" y="170" class="st4" width="603.3" height="143.1"/>
	<image width="125" height="141" xlink:href="3E375827.jpg"  transform="matrix(0.5556 0 0 0.5556 594.9919 199.3544)">
	</image>
	<text transform="matrix(6.123234e-17 -1 1 6.123234e-17 26.6631 252.3628)" class="st6">Variant</text>
	<text transform="matrix(1 0 0 1 31.1094 197.3596)">Omicron</text>
	<text transform="matrix(1 0 0 1 42.1881 238.5218)">Delta</text>
	<text transform="matrix(1 0 0 1 40.3311 277.6893)">Alpha</text>
</g>
<text transform="matrix(1 0 0 1 312.0954 161.0837)">Divergence</text>
<text transform="matrix(1 0 0 1 312.0954 312.0179)">Divergence</text>
<text transform="matrix(6.123234e-17 -1 1 6.123234e-17 41.1947 451.1797)">Divergence</text>
<text transform="matrix(6.123234e-17 -1 1 6.123234e-17 376.2951 465.5254)">Number of Samples</text>
<rect x="137.5" y="535" width="65.7" height="7.8"/>
<g>
	<text transform="matrix(1 0 0 1 164.729 541.3732)" class="st7">Date</text>
</g>
<rect x="445.2" y="533" width="65.7" height="7.8"/>
<g>
	<text transform="matrix(1 0 0 1 462.3117 539.3732)" class="st7">Days since the introduction</text>
</g>
<rect x="608.1" y="412.1" transform="matrix(-1.836970e-16 1 -1 -1.836970e-16 1076.1139 -205.7478)" width="65.7" height="46.1"/>
<polyline points="289.5,494.6 289.5,394.6 350,394.6 350,494.6 "/>
<image width="125" height="141" xlink:href="3E375829.jpg"  transform="matrix(0.3941 0 0 0.3941 289.5158 404.7622)">
</image>
<image width="125" height="141" xlink:href="3E37582B.jpg"  transform="matrix(0.3941 0 0 0.3941 616.9169 404.7622)">
</image>
</svg>
